<svg width="194" height="44" viewBox="0 0 194 44" fill="none" xmlns="http://www.w3.org/2000/svg">
<path d="M24.1832 23.7564L21.7188 14.4128L27.1086 23.7564L27.4986 20.4409L30.424 26.4867L35.8847 31.7524L36.4698 32.3375L38.4201 27.6569C40.1753 10.4946 26.5885 6.26905 19.6976 6.20404L13.4568 6.98414L18.9264 4.17397C50.5737 8.82799 41.7355 36.433 30.424 41.1136L21.7188 34.5802L31.2041 36.8231L24.1832 23.7564Z" fill="#8CF0CD"/>
<path d="M40.9554 23.9336C40.9554 12.8507 31.7858 3.86371 20.4777 3.86371C9.1696 3.86371 0 12.8472 0 23.9336C0 27.5891 0.997244 31.0152 2.73972 33.9686C2.76132 34.0074 2.78652 34.0427 2.80812 34.0815C2.88013 34.2014 2.95213 34.3214 3.02773 34.4414C3.06733 34.5014 3.10694 34.5649 3.14654 34.6249C3.21854 34.7342 3.29054 34.8472 3.36255 34.9565C3.39855 35.0095 3.43455 35.0659 3.47055 35.1188C3.57496 35.2741 3.68296 35.4258 3.79097 35.574C3.82337 35.6199 3.85937 35.6658 3.89177 35.7116C3.97457 35.821 4.05738 35.9339 4.14018 36.0433C4.18338 36.0998 4.23018 36.1597 4.27339 36.2162C4.35619 36.3185 4.43899 36.4244 4.5218 36.5267C4.5614 36.5761 4.601 36.6255 4.6442 36.6749C4.76301 36.816 4.88541 36.9572 5.00782 37.0983C5.04742 37.1442 5.08702 37.1865 5.13022 37.2324C5.22023 37.3312 5.31383 37.4335 5.40384 37.5323C5.45424 37.5852 5.50464 37.6382 5.55504 37.6911C5.64865 37.7864 5.73865 37.8816 5.83585 37.9769C5.87906 38.0228 5.92586 38.0651 5.96906 38.111C6.10227 38.2415 6.23547 38.3686 6.37228 38.4956C6.41908 38.5379 6.46588 38.5803 6.51268 38.6226C6.60989 38.7108 6.71069 38.8026 6.8079 38.8872C6.8655 38.9366 6.9195 38.986 6.9771 39.0319C7.07791 39.1201 7.18231 39.2048 7.28672 39.293C7.33352 39.3318 7.38032 39.3706 7.42712 39.4095C7.57113 39.5259 7.71874 39.6423 7.86634 39.7553C7.91675 39.7941 7.97075 39.8329 8.02115 39.8717C8.12555 39.9493 8.23356 40.0305 8.33796 40.1081C8.39917 40.1504 8.46037 40.1963 8.51797 40.2386C8.62958 40.3163 8.74478 40.3974 8.85639 40.4715C8.90319 40.5033 8.95359 40.5386 9.00039 40.5703C9.1552 40.6726 9.31361 40.775 9.47201 40.8738C9.52962 40.9091 9.58362 40.9443 9.64122 40.9761C9.75283 41.0467 9.86803 41.1137 9.98324 41.1808C10.048 41.2196 10.1092 41.2548 10.174 41.2901C10.3 41.3607 10.4225 41.4313 10.5485 41.4983C10.5953 41.523 10.6421 41.5512 10.6925 41.5759C10.8581 41.6642 11.0273 41.7524 11.1965 41.837C11.2541 41.8653 11.3153 41.8935 11.3729 41.9217C11.4953 41.9817 11.6177 42.0382 11.7401 42.0946C11.8049 42.1264 11.8697 42.1546 11.9345 42.1828C12.0713 42.2463 12.2117 42.3063 12.3521 42.3628C12.3953 42.3804 12.4385 42.4016 12.4817 42.4192C12.6582 42.4933 12.8382 42.5639 13.0182 42.6345C13.0794 42.6592 13.137 42.6803 13.1982 42.7015C13.3278 42.7509 13.461 42.7968 13.5942 42.8427C13.659 42.8638 13.7238 42.8885 13.7922 42.9097C13.947 42.9626 14.1018 43.012 14.2566 43.0614C14.2926 43.072 14.3286 43.0861 14.3646 43.0967C14.5518 43.1532 14.7426 43.2096 14.9335 43.2625C14.9947 43.2802 15.0559 43.2943 15.1171 43.3119C15.2575 43.3508 15.3979 43.386 15.5383 43.4178C15.6031 43.4319 15.6679 43.4496 15.7327 43.4637C15.9055 43.5025 16.0783 43.5413 16.2511 43.5766C16.2763 43.5836 16.3051 43.5872 16.3303 43.5942C16.5283 43.633 16.7263 43.6718 16.9279 43.7036C16.9891 43.7142 17.0503 43.7248 17.1115 43.7318C17.2592 43.7565 17.4104 43.7777 17.5616 43.7989C17.6228 43.8059 17.6876 43.8165 17.7488 43.8236C17.9396 43.8483 18.134 43.873 18.3284 43.8906C18.3428 43.8906 18.3536 43.8906 18.368 43.8941C18.5732 43.9153 18.782 43.9329 18.9908 43.9471C19.052 43.9506 19.1132 43.9541 19.1744 43.9576C19.3292 43.9682 19.4876 43.9753 19.6425 43.9823C19.7037 43.9823 19.7685 43.9859 19.8297 43.9894C20.0421 43.9965 20.2545 44 20.4669 44C20.6793 44 20.8917 43.9965 21.1041 43.9894C21.1653 43.9894 21.2301 43.9859 21.2913 43.9823C21.4497 43.9753 21.6045 43.9682 21.7593 43.9576C21.8206 43.9541 21.8818 43.9506 21.943 43.9471C22.1518 43.9329 22.3606 43.9153 22.5658 43.8941C22.5802 43.8941 22.591 43.8941 22.6054 43.8906C22.7998 43.8694 22.9942 43.8483 23.185 43.8236C23.2462 43.8165 23.311 43.8059 23.3722 43.7989C23.5234 43.7777 23.671 43.7565 23.8222 43.7318C23.8834 43.7212 23.9446 43.7142 24.0022 43.7036C24.2039 43.6683 24.4019 43.633 24.5999 43.5942C24.6251 43.5907 24.6503 43.5836 24.6755 43.5766C24.8519 43.5413 25.0247 43.5025 25.1975 43.4637C25.2623 43.4496 25.3235 43.4319 25.3883 43.4178C25.5323 43.3825 25.6727 43.3472 25.8131 43.3084C25.8743 43.2943 25.9319 43.2767 25.9931 43.2625C26.1839 43.2096 26.3748 43.1567 26.5656 43.0967C26.598 43.0861 26.634 43.0755 26.6664 43.0649C26.8248 43.0155 26.9832 42.9626 27.1416 42.9097C27.2064 42.8885 27.2676 42.8674 27.3324 42.8427C27.4656 42.7968 27.6024 42.7474 27.7356 42.698C27.7932 42.6768 27.8508 42.6556 27.9084 42.6345C28.092 42.5639 28.272 42.4933 28.452 42.4192C28.4916 42.4016 28.5312 42.384 28.5708 42.3698C28.7149 42.3099 28.8589 42.2463 29.0029 42.1828C29.0641 42.1546 29.1289 42.1264 29.1901 42.0981C29.3161 42.0382 29.4457 41.9782 29.5717 41.9182C29.6257 41.89 29.6833 41.8653 29.7373 41.837C29.9101 41.7524 30.0793 41.6642 30.2485 41.5724C30.2917 41.5512 30.3313 41.5265 30.3709 41.5054C30.3745 41.5054 30.3817 41.4983 30.3853 41.4983C30.5365 41.4172 30.6877 41.3254 30.8353 41.2407C30.7201 41.3078 30.6049 41.3748 30.4897 41.4383C30.5833 41.3889 30.6733 41.336 30.7633 41.2866C30.8245 41.2513 30.8821 41.2196 30.9398 41.1843C30.983 41.1596 31.0226 41.1349 31.0658 41.1102C31.127 41.0749 31.1882 41.0361 31.2494 41.0008C31.2674 40.9902 31.2854 40.9796 31.2998 40.969C31.3502 40.9373 31.4006 40.9091 31.451 40.8773C31.6094 40.7785 31.7678 40.6762 31.9226 40.5739C31.7966 40.6585 31.667 40.7362 31.5374 40.8173C32.1854 40.408 32.8118 39.967 33.4059 39.4906C33.4419 39.4624 33.4779 39.4342 33.5139 39.4059C33.5535 39.3742 33.5895 39.3424 33.6255 39.3107C33.7407 39.2154 33.8523 39.1201 33.9675 39.0249C34.0179 38.9825 34.0647 38.9402 34.1151 38.8978C34.2267 38.799 34.3347 38.7038 34.4427 38.6014C34.4787 38.5662 34.5183 38.5344 34.5543 38.4991C34.6119 38.4462 34.6659 38.3933 34.7199 38.3403C34.6839 38.3756 34.6479 38.4038 34.6119 38.4391C34.6515 38.4003 34.6947 38.365 34.7379 38.3262C34.8171 38.2521 34.8963 38.178 34.9719 38.1039C35.0079 38.0686 35.0403 38.0369 35.0727 38.0016C35.1771 37.8957 35.2851 37.7899 35.3859 37.6805C35.4291 37.6346 35.4724 37.5923 35.5156 37.5464C35.62 37.4335 35.7244 37.3206 35.8288 37.2077C35.8576 37.1759 35.8864 37.1442 35.9152 37.1124C35.9332 37.0913 35.9512 37.0701 35.9692 37.0489C36.0232 36.9854 36.0772 36.9254 36.1312 36.8619C36.1672 36.8196 36.2068 36.7737 36.2428 36.7314C36.2752 36.6925 36.3076 36.6502 36.34 36.6114C36.3148 36.6431 36.2896 36.6714 36.2644 36.7031C36.2716 36.6925 36.2824 36.682 36.2896 36.6714C36.3184 36.6361 36.3508 36.5973 36.3796 36.562C36.4156 36.5196 36.448 36.4773 36.484 36.4314C36.5164 36.3891 36.5524 36.3468 36.5848 36.3079C36.628 36.255 36.6676 36.2021 36.7108 36.1492C36.6892 36.1739 36.6712 36.2021 36.6496 36.2268C36.6532 36.2197 36.6604 36.2127 36.664 36.2056C36.7 36.1597 36.736 36.1103 36.7756 36.0645C36.8188 36.008 36.8656 35.948 36.9088 35.8881C36.9412 35.8457 36.97 35.8069 37.0024 35.7681C37.0348 35.7257 37.0636 35.6869 37.096 35.6446C37.2004 35.5035 37.3012 35.3623 37.3984 35.2176C37.4344 35.1647 37.4704 35.1118 37.5064 35.0589C37.4812 35.0977 37.4524 35.1365 37.4272 35.1753C37.4416 35.1541 37.456 35.1365 37.4704 35.1153C37.4992 35.0765 37.5244 35.0342 37.5496 34.9954C37.6036 34.9142 37.6576 34.8295 37.7116 34.7484C37.7477 34.6954 37.7836 34.6425 37.8161 34.5896C37.8377 34.5578 37.8557 34.5261 37.8773 34.4943C37.8809 34.4873 37.8881 34.4767 37.8917 34.4696C37.9781 34.332 38.0645 34.1909 38.1473 34.0497C38.1545 34.0391 38.1581 34.0321 38.1653 34.0215C38.1725 34.0074 38.1833 33.9933 38.1905 33.9827C38.4065 33.6157 38.6117 33.2417 38.8025 32.8606C38.8097 32.8465 38.8169 32.8289 38.8241 32.8148C38.9105 32.6454 38.9933 32.4725 39.0761 32.2996C39.0941 32.2608 39.1121 32.2185 39.1301 32.1796C39.1985 32.0314 39.2669 31.8797 39.3317 31.728C39.3569 31.6715 39.3785 31.6186 39.4001 31.5622C39.4577 31.4245 39.5153 31.2869 39.5693 31.1493C39.5945 31.0823 39.6197 31.0188 39.6449 30.9517C39.6953 30.8212 39.7421 30.6942 39.7889 30.5601C39.8141 30.486 39.8393 30.4119 39.8645 30.3378C39.9077 30.2143 39.9473 30.0908 39.9869 29.9638C40.0121 29.8826 40.0373 29.8015 40.0625 29.7203C40.0985 29.6003 40.1346 29.4804 40.1706 29.3604C40.1958 29.2757 40.221 29.1875 40.2426 29.0993C40.275 28.9828 40.3038 28.8664 40.3326 28.75C40.3542 28.6582 40.3794 28.5665 40.401 28.4747C40.4262 28.3618 40.4514 28.2454 40.4766 28.1325C40.4982 28.0372 40.5198 27.9384 40.5378 27.8432C40.5594 27.7302 40.581 27.6209 40.6026 27.5079C40.6206 27.4092 40.6386 27.3068 40.6566 27.2045C40.6746 27.0951 40.6926 26.9857 40.707 26.8764C40.7214 26.7705 40.7394 26.6682 40.7538 26.5623C40.7682 26.4565 40.779 26.3471 40.7934 26.2412C40.8078 26.1318 40.8186 26.0225 40.8294 25.9131C40.8402 25.8108 40.8474 25.7049 40.8546 25.5991C40.8654 25.4861 40.8762 25.3732 40.8834 25.2603C40.8906 25.1615 40.8942 25.0592 40.8978 24.9604C40.9158 24.6217 40.9266 24.2829 40.9266 23.9442C40.9266 23.9442 40.9266 23.923 40.9266 23.9124C40.9266 23.923 40.9266 23.9336 40.9266 23.9442L40.9554 23.9336ZM21.7593 5.11984C21.5973 5.11984 21.4353 5.11984 21.2697 5.1269C21.4317 5.12337 21.5937 5.11984 21.7593 5.11984ZM8.46757 10.3561C8.46757 10.3561 8.48917 10.3349 8.49997 10.3243C8.48917 10.3349 8.47837 10.3455 8.46757 10.3561ZM20.0961 5.19041C20.0061 5.19747 19.9161 5.20452 19.8261 5.21511C19.9161 5.20805 20.0061 5.201 20.0961 5.19041ZM19.6137 5.23628C19.5273 5.24687 19.4408 5.25392 19.3544 5.26451C19.4408 5.25392 19.5273 5.24334 19.6137 5.23628ZM18.6632 5.36331C18.5804 5.37742 18.4976 5.38801 18.4148 5.40212C18.4976 5.38801 18.5804 5.37389 18.6632 5.36331ZM17.7308 5.5362C17.6516 5.55384 17.5724 5.56796 17.4932 5.5856C17.5724 5.56796 17.6516 5.55031 17.7308 5.5362ZM17.27 5.63853C17.1908 5.65617 17.1151 5.67381 17.0359 5.69498C17.1115 5.67734 17.1908 5.65617 17.27 5.63853ZM16.8163 5.75144C16.7407 5.77261 16.6615 5.79025 16.5859 5.81142C16.6615 5.79025 16.7371 5.76908 16.8163 5.75144ZM16.3663 5.87493C16.2907 5.8961 16.2151 5.91727 16.1395 5.94197C16.2151 5.9208 16.2907 5.8961 16.3663 5.87493ZM15.9199 6.00901C15.8443 6.03371 15.7723 6.05489 15.6967 6.07958C15.7687 6.05489 15.8443 6.03371 15.9199 6.00901ZM15.0415 6.30893C14.9695 6.33363 14.8975 6.36186 14.829 6.39009C14.9011 6.36186 14.9731 6.33716 15.0415 6.30893ZM14.1846 6.64414C14.1162 6.67237 14.0478 6.70059 13.9794 6.73235C14.0478 6.70412 14.1162 6.67237 14.1846 6.64414ZM13.7634 6.82762C13.6986 6.85585 13.6302 6.8876 13.5654 6.91936C13.6302 6.8876 13.695 6.85937 13.7634 6.82762ZM13.3458 7.02168C13.281 7.05344 13.2162 7.08167 13.155 7.11342C13.2198 7.08167 13.281 7.04991 13.3458 7.02168ZM12.1325 7.65681C12.0749 7.68856 12.0173 7.72385 11.9597 7.7556C12.0173 7.72032 12.0749 7.68856 12.1325 7.65681ZM11.7401 7.88616C11.6825 7.92144 11.6285 7.9532 11.5709 7.98848C11.6285 7.9532 11.6825 7.91791 11.7401 7.88616ZM11.3549 8.12609C11.3009 8.16138 11.2469 8.19666 11.1929 8.22842C11.2469 8.19313 11.3009 8.15785 11.3549 8.12609ZM10.9733 8.37309C10.9229 8.40837 10.8725 8.44366 10.8221 8.47541C10.8725 8.44013 10.9229 8.40484 10.9733 8.37309ZM10.2316 8.89177C10.1884 8.92353 10.1416 8.95881 10.0984 8.99057C10.1416 8.95881 10.1848 8.92353 10.2316 8.89177ZM8.83479 10.0279C8.81318 10.0491 8.79158 10.0703 8.76638 10.0879C8.78798 10.0667 8.80958 10.0456 8.83479 10.0279ZM2.58491 23.0162C2.58491 23.0621 2.58131 23.108 2.57771 23.1538C2.57771 23.1538 2.57771 23.1503 2.57771 23.1468C2.57771 23.1044 2.57771 23.0621 2.58491 23.0162ZM5.65225 13.694C5.65225 13.694 5.64865 13.7011 5.64505 13.7046C5.64505 13.7046 5.64865 13.6975 5.65225 13.694ZM5.42184 14.0539C5.42184 14.0539 5.41104 14.0716 5.40384 14.0786C5.41104 14.0716 5.41464 14.061 5.42184 14.0539ZM5.19503 14.4209C5.19503 14.4209 5.18063 14.4456 5.16983 14.4597C5.17703 14.4456 5.18423 14.435 5.19503 14.4209ZM4.97542 14.7984C4.97542 14.7984 4.95742 14.8302 4.94662 14.8443C4.95742 14.8266 4.96462 14.8125 4.97542 14.7984ZM4.17618 16.3792C4.16538 16.4003 4.15458 16.425 4.14738 16.4462C4.15818 16.425 4.16898 16.4003 4.17618 16.3792ZM3.52455 18.0517C3.51735 18.0764 3.51015 18.1011 3.49935 18.1258C3.50655 18.1011 3.51375 18.0764 3.52455 18.0517ZM3.38415 18.4821C3.37695 18.5068 3.36975 18.5315 3.36255 18.5527C3.36975 18.528 3.37695 18.5033 3.38415 18.4821ZM3.25454 18.9161C3.24734 18.9408 3.24014 18.962 3.23654 18.9867C3.24374 18.962 3.25094 18.9408 3.25454 18.9161ZM2.84412 20.698C2.84412 20.7157 2.83692 20.7368 2.83332 20.7545C2.83332 20.7368 2.84052 20.7157 2.84412 20.698ZM2.76852 21.1532C2.76852 21.1532 2.76492 21.1885 2.76132 21.2061C2.76132 21.1885 2.76492 21.1708 2.76852 21.1532ZM2.70372 21.6119C2.70372 21.6119 2.70012 21.6436 2.69652 21.6578C2.69652 21.6436 2.69652 21.626 2.70372 21.6119ZM2.64972 22.0741C2.64972 22.0741 2.64972 22.0988 2.64972 22.1094C2.64972 22.0988 2.64972 22.0847 2.64972 22.0741ZM2.61011 22.5399C2.61011 22.5399 2.61011 22.554 2.61011 22.561C2.61011 22.554 2.61011 22.5469 2.61011 22.5399ZM2.56331 23.4185C2.56331 23.4643 2.56331 23.5102 2.56331 23.5525C2.56331 23.5067 2.56331 23.4643 2.56331 23.4185ZM10.2352 26.4424L4.6046 32.0914C3.29774 29.6533 2.55611 26.8764 2.55611 23.9336C2.55611 23.9336 2.55611 23.9301 2.55611 23.9266C2.55611 23.9266 2.55611 23.9301 2.55611 23.9336V23.9266C2.55611 23.8419 2.55611 23.7537 2.55971 23.669C2.71092 14.0927 10.6745 6.37245 20.4777 6.37245C29.3809 6.37245 36.7648 12.7378 38.1581 21.0791C38.2337 21.5378 38.2913 22 38.3309 22.4693C38.3309 22.4764 38.3309 22.4799 38.3309 22.4869C38.3309 22.4905 38.3309 22.4975 38.3309 22.5011C38.3489 22.7198 38.3633 22.9386 38.3705 23.1574C38.3705 23.1891 38.3705 23.2173 38.3705 23.2491C38.3705 23.2561 38.3705 23.2667 38.3705 23.2738C38.3777 23.4926 38.3849 23.7113 38.3849 23.9301C38.3849 26.8764 37.6432 29.6533 36.3364 32.0914L30.7057 26.4424L27.2928 18.9161H24.5639L20.4669 11.3899L10.228 26.4424H10.2352ZM35.3787 37.6911C35.584 37.4759 35.7856 37.2606 35.98 37.0383C35.7856 37.2606 35.584 37.4794 35.3787 37.6911ZM37.834 33.7533L37.8017 33.8063C37.8017 33.8063 37.7873 33.8274 37.78 33.838C37.6972 33.9756 37.6144 34.1097 37.5316 34.2438L37.5028 34.2897C37.492 34.3073 37.4812 34.3285 37.4668 34.3461C37.3768 34.4837 37.2796 34.6354 37.1608 34.8048C37.1248 34.8577 37.0888 34.9071 37.0528 34.9601C36.9448 35.1153 36.8476 35.2529 36.754 35.38C36.7324 35.4082 36.7144 35.4364 36.6928 35.4611L36.664 35.4999C36.5704 35.6234 36.4768 35.7469 36.3796 35.8704C36.34 35.9233 36.3004 35.9727 36.2572 36.0257C36.1348 36.1774 36.0232 36.315 35.9188 36.4385C35.8972 36.4667 35.872 36.4914 35.8504 36.5161L35.8072 36.5655L35.7748 36.6008L35.6452 36.749C34.1511 38.4462 32.3942 39.8682 30.4249 40.9761L22.3642 34.8613L30.5977 36.8796L31.5446 37.1124L31.0838 36.2691L24.2795 23.7678L21.8494 14.8337L26.904 24.1242L27.7212 25.6237V20.9097L30.3061 26.6082L30.3385 26.6788L30.3925 26.7317L36.0232 32.3808L36.4408 32.7971L36.718 32.2784C38.0897 29.7203 38.8169 26.8305 38.8169 23.9195C38.8169 23.7149 38.8133 23.4961 38.8025 23.2456V23.2209L38.7989 23.1256C38.7881 22.8857 38.7737 22.6634 38.7557 22.4517V22.434V22.4234C38.7161 21.9471 38.6549 21.4672 38.5757 20.9979C37.8809 16.8343 35.692 13.0236 32.4086 10.2643C29.0893 7.47333 24.8483 5.93492 20.4705 5.93492C18.6308 5.93492 16.8271 6.19955 15.1135 6.70765C17.2052 5.93492 19.448 5.52914 21.7486 5.52914C26.2631 5.52914 30.6265 7.12401 34.0323 10.0174C37.4056 12.8825 39.6305 16.8273 40.3002 21.1285L40.3578 21.4884H40.3614C40.4118 21.9083 40.4514 22.3458 40.4802 22.7939C40.4874 22.8892 40.491 22.9809 40.4946 23.0762C40.4982 23.1574 40.5018 23.235 40.5054 23.3161C40.5126 23.549 40.5162 23.7395 40.5162 23.9195C40.5162 27.3703 39.5873 30.7683 37.834 33.7427V33.7533ZM38.2085 33.965C38.3129 33.7851 38.4173 33.6051 38.5181 33.4217C38.4173 33.6051 38.3165 33.7851 38.2085 33.965ZM38.6153 33.2346C38.6801 33.1147 38.7449 32.9912 38.8061 32.8677C38.7449 32.9912 38.6801 33.1112 38.6153 33.2346ZM38.9177 32.6419C38.9717 32.529 39.0293 32.4196 39.0797 32.3067C39.0257 32.4196 38.9717 32.529 38.9177 32.6419ZM39.1949 32.0597C39.2417 31.9538 39.2921 31.8444 39.3389 31.7386C39.2921 31.848 39.2417 31.9538 39.1949 32.0597ZM39.6845 30.8812C39.7241 30.7753 39.7637 30.673 39.7997 30.5671C39.7637 30.673 39.7241 30.7788 39.6845 30.8812ZM39.9005 30.2813C39.9365 30.179 39.9725 30.0731 40.0049 29.9673C39.9725 30.0731 39.9365 30.1755 39.9005 30.2813ZM40.095 29.6744C40.1274 29.5721 40.1562 29.4662 40.1886 29.3639C40.1598 29.4698 40.1274 29.5721 40.095 29.6744ZM40.2714 29.0605C40.3002 28.9581 40.3254 28.8523 40.3506 28.75C40.3254 28.8558 40.2966 28.9581 40.2714 29.0605ZM40.4262 28.4395C40.4514 28.3371 40.473 28.2313 40.4946 28.129C40.473 28.2348 40.4478 28.3371 40.4262 28.4395ZM40.563 27.8114C40.5846 27.7091 40.6026 27.6032 40.6206 27.5009C40.6026 27.6067 40.581 27.7091 40.563 27.8114ZM40.6782 27.1763C40.6962 27.0739 40.7106 26.9681 40.725 26.8658C40.7106 26.9681 40.6926 27.0739 40.6782 27.1763ZM40.7754 26.5376C40.7898 26.4353 40.8006 26.333 40.8114 26.2271C40.8006 26.3294 40.7862 26.4353 40.7754 26.5376Z" fill="#CDFFEF"/>
<path d="M57.36 17.1C56.32 17.1 55.3533 16.9267 54.46 16.58C53.58 16.22 52.8133 15.72 52.16 15.08C51.5067 14.44 51 13.6933 50.64 12.84C50.28 11.9733 50.1 11.0267 50.1 10C50.1 8.97333 50.28 8.03333 50.64 7.18C51 6.31333 51.5067 5.56 52.16 4.92C52.8267 4.28 53.6 3.78667 54.48 3.44C55.36 3.08 56.32 2.9 57.36 2.9C58.3467 2.9 59.2667 3.06 60.12 3.38C60.9867 3.7 61.7267 4.18667 62.34 4.84L61.7 5.5C61.1 4.91333 60.4333 4.49333 59.7 4.24C58.98 3.97333 58.2133 3.84 57.4 3.84C56.5067 3.84 55.6733 3.99333 54.9 4.3C54.14 4.60667 53.4733 5.04 52.9 5.6C52.34 6.16 51.9 6.81333 51.58 7.56C51.2733 8.30667 51.12 9.12 51.12 10C51.12 10.88 51.2733 11.6933 51.58 12.44C51.9 13.1867 52.34 13.84 52.9 14.4C53.4733 14.96 54.14 15.3933 54.9 15.7C55.6733 16.0067 56.5067 16.16 57.4 16.16C58.2133 16.16 58.98 16.0333 59.7 15.78C60.4333 15.5133 61.1 15.08 61.7 14.48L62.34 15.14C61.7267 15.7933 60.9867 16.2867 60.12 16.62C59.2667 16.94 58.3467 17.1 57.36 17.1ZM69.2281 17.08C68.2281 17.08 67.3348 16.8533 66.5481 16.4C65.7748 15.9467 65.1548 15.32 64.6881 14.52C64.2348 13.72 64.0081 12.8067 64.0081 11.78C64.0081 10.74 64.2348 9.82667 64.6881 9.04C65.1548 8.24 65.7748 7.61333 66.5481 7.16C67.3348 6.70667 68.2281 6.48 69.2281 6.48C70.2281 6.48 71.1215 6.70667 71.9081 7.16C72.6948 7.61333 73.3148 8.24 73.7681 9.04C74.2215 9.82667 74.4481 10.74 74.4481 11.78C74.4481 12.8067 74.2215 13.72 73.7681 14.52C73.3148 15.32 72.6948 15.9467 71.9081 16.4C71.1215 16.8533 70.2281 17.08 69.2281 17.08ZM69.2281 16.18C70.0281 16.18 70.7481 16 71.3881 15.64C72.0281 15.2667 72.5281 14.7467 72.8881 14.08C73.2481 13.4133 73.4281 12.6467 73.4281 11.78C73.4281 10.9 73.2481 10.1333 72.8881 9.48C72.5281 8.81333 72.0281 8.3 71.3881 7.94C70.7481 7.56667 70.0281 7.38 69.2281 7.38C68.4281 7.38 67.7081 7.56667 67.0681 7.94C66.4415 8.3 65.9415 8.81333 65.5681 9.48C65.2081 10.1333 65.0281 10.9 65.0281 11.78C65.0281 12.6467 65.2081 13.4133 65.5681 14.08C65.9415 14.7467 66.4415 15.2667 67.0681 15.64C67.7081 16 68.4281 16.18 69.2281 16.18ZM90.7505 6.48C91.5905 6.48 92.3171 6.64667 92.9305 6.98C93.5571 7.3 94.0438 7.79333 94.3905 8.46C94.7371 9.11333 94.9105 9.92667 94.9105 10.9V17H93.9105V10.98C93.9105 9.80667 93.6238 8.91333 93.0505 8.3C92.4771 7.68667 91.6771 7.38 90.6505 7.38C89.8638 7.38 89.1838 7.54667 88.6105 7.88C88.0371 8.21333 87.5971 8.68 87.2905 9.28C86.9838 9.88 86.8305 10.6 86.8305 11.44V17H85.8305V10.98C85.8305 9.80667 85.5438 8.91333 84.9705 8.3C84.3971 7.68667 83.5971 7.38 82.5705 7.38C81.7838 7.38 81.1038 7.54667 80.5305 7.88C79.9571 8.21333 79.5171 8.68 79.2105 9.28C78.9038 9.88 78.7505 10.6 78.7505 11.44V17H77.7505V6.56H78.7105V9.44L78.5705 9.12C78.8771 8.30667 79.3905 7.66667 80.1105 7.2C80.8305 6.72 81.6971 6.48 82.7105 6.48C83.7505 6.48 84.6238 6.74667 85.3305 7.28C86.0505 7.8 86.5038 8.58 86.6905 9.62L86.3505 9.48C86.6305 8.58667 87.1571 7.86667 87.9305 7.32C88.7038 6.76 89.6438 6.48 90.7505 6.48ZM103.48 17.08C102.586 17.08 101.813 16.92 101.16 16.6C100.506 16.2667 99.9995 15.7733 99.6395 15.12C99.2929 14.4533 99.1195 13.6333 99.1195 12.66V6.56H100.12V12.58C100.12 13.7533 100.42 14.6467 101.02 15.26C101.62 15.8733 102.466 16.18 103.56 16.18C104.346 16.18 105.026 16.0133 105.6 15.68C106.173 15.3467 106.613 14.88 106.92 14.28C107.226 13.6667 107.38 12.9467 107.38 12.12V6.56H108.38V17H107.42V14.1L107.56 14.44C107.253 15.2533 106.74 15.9 106.02 16.38C105.313 16.8467 104.466 17.08 103.48 17.08ZM117.918 6.48C118.772 6.48 119.512 6.64667 120.138 6.98C120.778 7.3 121.272 7.79333 121.618 8.46C121.978 9.11333 122.158 9.92667 122.158 10.9V17H121.158V10.98C121.158 9.80667 120.858 8.91333 120.258 8.3C119.672 7.68667 118.845 7.38 117.778 7.38C116.965 7.38 116.258 7.54667 115.658 7.88C115.058 8.21333 114.598 8.68 114.278 9.28C113.972 9.88 113.818 10.6 113.818 11.44V17H112.818V6.56H113.778V9.46L113.638 9.14C113.958 8.31333 114.485 7.66667 115.218 7.2C115.952 6.72 116.852 6.48 117.918 6.48ZM126.475 17V6.56H127.475V17H126.475ZM126.975 4.02C126.749 4.02 126.555 3.94 126.395 3.78C126.235 3.62 126.155 3.43333 126.155 3.22C126.155 2.99333 126.235 2.8 126.395 2.64C126.555 2.48 126.749 2.4 126.975 2.4C127.215 2.4 127.409 2.48 127.555 2.64C127.715 2.78667 127.795 2.97333 127.795 3.2C127.795 3.42667 127.715 3.62 127.555 3.78C127.409 3.94 127.215 4.02 126.975 4.02ZM135.91 17.08C134.937 17.08 134.057 16.86 133.27 16.42C132.497 15.9667 131.884 15.34 131.43 14.54C130.977 13.74 130.75 12.82 130.75 11.78C130.75 10.7267 130.977 9.80667 131.43 9.02C131.884 8.22 132.497 7.6 133.27 7.16C134.057 6.70667 134.937 6.48 135.91 6.48C136.83 6.48 137.657 6.69333 138.39 7.12C139.137 7.54667 139.724 8.15333 140.15 8.94C140.59 9.72667 140.81 10.6733 140.81 11.78C140.81 12.86 140.597 13.8 140.17 14.6C139.744 15.4 139.157 16.0133 138.41 16.44C137.677 16.8667 136.844 17.08 135.91 17.08ZM135.97 16.18C136.77 16.18 137.484 16 138.11 15.64C138.75 15.2667 139.25 14.7467 139.61 14.08C139.984 13.4133 140.17 12.6467 140.17 11.78C140.17 10.9 139.984 10.1333 139.61 9.48C139.25 8.81333 138.75 8.3 138.11 7.94C137.484 7.56667 136.77 7.38 135.97 7.38C135.17 7.38 134.45 7.56667 133.81 7.94C133.184 8.3 132.684 8.81333 132.31 9.48C131.95 10.1333 131.77 10.9 131.77 11.78C131.77 12.6467 131.95 13.4133 132.31 14.08C132.684 14.7467 133.184 15.2667 133.81 15.64C134.45 16 135.17 16.18 135.97 16.18ZM140.19 17V13.58L140.37 11.76L140.17 9.94V2.16H141.17V17H140.19ZM152.166 17V14.62L152.126 14.26V10.34C152.126 9.36667 151.86 8.62667 151.326 8.12C150.806 7.61333 150.04 7.36 149.026 7.36C148.306 7.36 147.633 7.48667 147.006 7.74C146.393 7.98 145.866 8.29333 145.426 8.68L144.926 7.96C145.446 7.49333 146.073 7.13333 146.806 6.88C147.54 6.61333 148.306 6.48 149.106 6.48C150.4 6.48 151.393 6.80667 152.086 7.46C152.78 8.11333 153.126 9.08667 153.126 10.38V17H152.166ZM148.406 17.08C147.633 17.08 146.96 16.96 146.386 16.72C145.826 16.4667 145.393 16.1133 145.086 15.66C144.793 15.2067 144.646 14.6867 144.646 14.1C144.646 13.5667 144.766 13.0867 145.006 12.66C145.26 12.22 145.673 11.8667 146.246 11.6C146.82 11.32 147.586 11.18 148.546 11.18H152.386V11.96H148.566C147.486 11.96 146.726 12.16 146.286 12.56C145.86 12.96 145.646 13.46 145.646 14.06C145.646 14.7267 145.9 15.26 146.406 15.66C146.913 16.06 147.626 16.26 148.546 16.26C149.426 16.26 150.166 16.06 150.766 15.66C151.38 15.26 151.833 14.68 152.126 13.92L152.406 14.6C152.126 15.36 151.646 15.9667 150.966 16.42C150.3 16.86 149.446 17.08 148.406 17.08ZM161.467 17.08C160.493 17.08 159.613 16.86 158.827 16.42C158.053 15.9667 157.44 15.34 156.987 14.54C156.533 13.74 156.307 12.82 156.307 11.78C156.307 10.7267 156.533 9.80667 156.987 9.02C157.44 8.22 158.053 7.6 158.827 7.16C159.613 6.70667 160.493 6.48 161.467 6.48C162.387 6.48 163.213 6.69333 163.947 7.12C164.693 7.54667 165.28 8.15333 165.707 8.94C166.147 9.72667 166.367 10.6733 166.367 11.78C166.367 12.86 166.153 13.8 165.727 14.6C165.3 15.4 164.713 16.0133 163.967 16.44C163.233 16.8667 162.4 17.08 161.467 17.08ZM161.527 16.18C162.327 16.18 163.04 16 163.667 15.64C164.307 15.2667 164.807 14.7467 165.167 14.08C165.54 13.4133 165.727 12.6467 165.727 11.78C165.727 10.9 165.54 10.1333 165.167 9.48C164.807 8.81333 164.307 8.3 163.667 7.94C163.04 7.56667 162.327 7.38 161.527 7.38C160.727 7.38 160.007 7.56667 159.367 7.94C158.74 8.3 158.24 8.81333 157.867 9.48C157.507 10.1333 157.327 10.9 157.327 11.78C157.327 12.6467 157.507 13.4133 157.867 14.08C158.24 14.7467 158.74 15.2667 159.367 15.64C160.007 16 160.727 16.18 161.527 16.18ZM165.747 17V13.58L165.927 11.76L165.727 9.94V2.16H166.727V17H165.747ZM175.383 17.08C174.329 17.08 173.396 16.8533 172.583 16.4C171.783 15.9467 171.149 15.32 170.683 14.52C170.229 13.72 170.003 12.8067 170.003 11.78C170.003 10.74 170.216 9.82667 170.643 9.04C171.083 8.24 171.683 7.61333 172.443 7.16C173.203 6.70667 174.056 6.48 175.003 6.48C175.949 6.48 176.796 6.7 177.543 7.14C178.303 7.58 178.896 8.2 179.323 9C179.763 9.78667 179.983 10.7 179.983 11.74C179.983 11.78 179.976 11.8267 179.963 11.88C179.963 11.92 179.963 11.9667 179.963 12.02H170.743V11.24H179.423L179.023 11.62C179.036 10.8067 178.863 10.08 178.503 9.44C178.156 8.78667 177.683 8.28 177.083 7.92C176.483 7.54667 175.789 7.36 175.003 7.36C174.229 7.36 173.536 7.54667 172.923 7.92C172.323 8.28 171.849 8.78667 171.503 9.44C171.156 10.08 170.983 10.8133 170.983 11.64V11.82C170.983 12.6733 171.169 13.4333 171.543 14.1C171.929 14.7533 172.456 15.2667 173.123 15.64C173.789 16 174.549 16.18 175.403 16.18C176.069 16.18 176.689 16.06 177.263 15.82C177.849 15.58 178.343 15.2133 178.743 14.72L179.323 15.38C178.869 15.94 178.296 16.3667 177.603 16.66C176.923 16.94 176.183 17.08 175.383 17.08Z" fill="url(#paint0_linear_13_681)"/>
<path d="M49.912 40V37.48L60.304 24.952L60.784 26.368H50.104V23.2H64.24V25.72L53.872 38.248L53.392 36.832H64.6V40H49.912ZM67.0296 40V27.088H70.7736V40H67.0296ZM68.9016 25.288C68.2136 25.288 67.6536 25.088 67.2216 24.688C66.7896 24.288 66.5736 23.792 66.5736 23.2C66.5736 22.608 66.7896 22.112 67.2216 21.712C67.6536 21.312 68.2136 21.112 68.9016 21.112C69.5896 21.112 70.1496 21.304 70.5816 21.688C71.0136 22.056 71.2296 22.536 71.2296 23.128C71.2296 23.752 71.0136 24.272 70.5816 24.688C70.1656 25.088 69.6056 25.288 68.9016 25.288ZM80.5923 40.192C79.2163 40.192 77.9923 39.904 76.9203 39.328C75.8643 38.752 75.0243 37.968 74.4003 36.976C73.7923 35.968 73.4883 34.824 73.4883 33.544C73.4883 32.248 73.7923 31.104 74.4003 30.112C75.0243 29.104 75.8643 28.32 76.9203 27.76C77.9923 27.184 79.2163 26.896 80.5923 26.896C81.9523 26.896 83.1683 27.184 84.2403 27.76C85.3123 28.32 86.1523 29.096 86.7603 30.088C87.3683 31.08 87.6723 32.232 87.6723 33.544C87.6723 34.824 87.3683 35.968 86.7603 36.976C86.1523 37.968 85.3123 38.752 84.2403 39.328C83.1683 39.904 81.9523 40.192 80.5923 40.192ZM80.5923 37.12C81.2163 37.12 81.7763 36.976 82.2723 36.688C82.7683 36.4 83.1603 35.992 83.4483 35.464C83.7363 34.92 83.8803 34.28 83.8803 33.544C83.8803 32.792 83.7363 32.152 83.4483 31.624C83.1603 31.096 82.7683 30.688 82.2723 30.4C81.7763 30.112 81.2163 29.968 80.5923 29.968C79.9683 29.968 79.4083 30.112 78.9123 30.4C78.4163 30.688 78.0163 31.096 77.7123 31.624C77.4243 32.152 77.2803 32.792 77.2803 33.544C77.2803 34.28 77.4243 34.92 77.7123 35.464C78.0163 35.992 78.4163 36.4 78.9123 36.688C79.4083 36.976 79.9683 37.12 80.5923 37.12ZM98.2229 26.896C99.2469 26.896 100.159 27.104 100.959 27.52C101.775 27.92 102.415 28.544 102.879 29.392C103.343 30.224 103.575 31.296 103.575 32.608V40H99.8309V33.184C99.8309 32.144 99.5989 31.376 99.1349 30.88C98.6869 30.384 98.0469 30.136 97.2149 30.136C96.6229 30.136 96.0869 30.264 95.6069 30.52C95.1429 30.76 94.7749 31.136 94.5029 31.648C94.2469 32.16 94.1189 32.816 94.1189 33.616V40H90.3749V27.088H93.9509V30.664L93.2789 29.584C93.7429 28.72 94.4069 28.056 95.2709 27.592C96.1349 27.128 97.1189 26.896 98.2229 26.896ZM122.542 40.288C121.214 40.288 119.99 40.08 118.87 39.664C117.766 39.232 116.798 38.624 115.965 37.84C115.15 37.056 114.51 36.136 114.046 35.08C113.598 34.024 113.374 32.864 113.374 31.6C113.374 30.336 113.598 29.176 114.046 28.12C114.51 27.064 115.158 26.144 115.99 25.36C116.822 24.576 117.798 23.976 118.918 23.56C120.038 23.128 121.27 22.912 122.614 22.912C124.102 22.912 125.438 23.16 126.622 23.656C127.822 24.152 128.83 24.872 129.646 25.816L127.15 28.12C126.542 27.48 125.878 27.008 125.158 26.704C124.438 26.384 123.654 26.224 122.806 26.224C121.99 26.224 121.246 26.352 120.574 26.608C119.902 26.864 119.318 27.232 118.822 27.712C118.342 28.192 117.966 28.76 117.694 29.416C117.438 30.072 117.31 30.8 117.31 31.6C117.31 32.384 117.438 33.104 117.694 33.76C117.966 34.416 118.342 34.992 118.822 35.488C119.318 35.968 119.894 36.336 120.55 36.592C121.222 36.848 121.958 36.976 122.758 36.976C123.526 36.976 124.27 36.856 124.99 36.616C125.726 36.36 126.438 35.936 127.126 35.344L129.334 38.152C128.422 38.84 127.358 39.368 126.142 39.736C124.942 40.104 123.742 40.288 122.542 40.288ZM125.782 37.648V31.336H129.334V38.152L125.782 37.648ZM132.881 40V22.192H136.625V40H132.881ZM146.444 40.192C145.068 40.192 143.844 39.904 142.772 39.328C141.716 38.752 140.876 37.968 140.252 36.976C139.644 35.968 139.34 34.824 139.34 33.544C139.34 32.248 139.644 31.104 140.252 30.112C140.876 29.104 141.716 28.32 142.772 27.76C143.844 27.184 145.068 26.896 146.444 26.896C147.804 26.896 149.02 27.184 150.092 27.76C151.164 28.32 152.004 29.096 152.612 30.088C153.22 31.08 153.524 32.232 153.524 33.544C153.524 34.824 153.22 35.968 152.612 36.976C152.004 37.968 151.164 38.752 150.092 39.328C149.02 39.904 147.804 40.192 146.444 40.192ZM146.444 37.12C147.068 37.12 147.628 36.976 148.124 36.688C148.62 36.4 149.012 35.992 149.3 35.464C149.588 34.92 149.732 34.28 149.732 33.544C149.732 32.792 149.588 32.152 149.3 31.624C149.012 31.096 148.62 30.688 148.124 30.4C147.628 30.112 147.068 29.968 146.444 29.968C145.82 29.968 145.26 30.112 144.764 30.4C144.268 30.688 143.868 31.096 143.564 31.624C143.276 32.152 143.132 32.792 143.132 33.544C143.132 34.28 143.276 34.92 143.564 35.464C143.868 35.992 144.268 36.4 144.764 36.688C145.26 36.976 145.82 37.12 146.444 37.12ZM163.858 40.192C162.722 40.192 161.746 39.952 160.93 39.472C160.114 38.992 159.49 38.264 159.058 37.288C158.626 36.296 158.41 35.048 158.41 33.544C158.41 32.024 158.634 30.776 159.082 29.8C159.546 28.824 160.186 28.096 161.002 27.616C161.818 27.136 162.77 26.896 163.858 26.896C165.074 26.896 166.162 27.168 167.122 27.712C168.098 28.256 168.866 29.024 169.426 30.016C170.002 31.008 170.29 32.184 170.29 33.544C170.29 34.888 170.002 36.056 169.426 37.048C168.866 38.04 168.098 38.816 167.122 39.376C166.162 39.92 165.074 40.192 163.858 40.192ZM156.226 40V22.192H159.97V29.704L159.73 33.52L159.802 37.36V40H156.226ZM163.21 37.12C163.834 37.12 164.386 36.976 164.866 36.688C165.362 36.4 165.754 35.992 166.042 35.464C166.346 34.92 166.498 34.28 166.498 33.544C166.498 32.792 166.346 32.152 166.042 31.624C165.754 31.096 165.362 30.688 164.866 30.4C164.386 30.112 163.834 29.968 163.21 29.968C162.586 29.968 162.026 30.112 161.53 30.4C161.034 30.688 160.642 31.096 160.354 31.624C160.066 32.152 159.922 32.792 159.922 33.544C159.922 34.28 160.066 34.92 160.354 35.464C160.642 35.992 161.034 36.4 161.53 36.688C162.026 36.976 162.586 37.12 163.21 37.12ZM180.706 40V37.48L180.466 36.928V32.416C180.466 31.616 180.218 30.992 179.722 30.544C179.242 30.096 178.498 29.872 177.49 29.872C176.802 29.872 176.122 29.984 175.45 30.208C174.794 30.416 174.234 30.704 173.77 31.072L172.426 28.456C173.13 27.96 173.978 27.576 174.97 27.304C175.962 27.032 176.97 26.896 177.994 26.896C179.962 26.896 181.49 27.36 182.578 28.288C183.666 29.216 184.21 30.664 184.21 32.632V40H180.706ZM176.77 40.192C175.762 40.192 174.898 40.024 174.178 39.688C173.458 39.336 172.906 38.864 172.522 38.272C172.138 37.68 171.946 37.016 171.946 36.28C171.946 35.512 172.13 34.84 172.498 34.264C172.882 33.688 173.482 33.24 174.298 32.92C175.114 32.584 176.178 32.416 177.49 32.416H180.922V34.6H177.898C177.018 34.6 176.41 34.744 176.074 35.032C175.754 35.32 175.594 35.68 175.594 36.112C175.594 36.592 175.778 36.976 176.146 37.264C176.53 37.536 177.05 37.672 177.706 37.672C178.33 37.672 178.89 37.528 179.386 37.24C179.882 36.936 180.242 36.496 180.466 35.92L181.042 37.648C180.77 38.48 180.274 39.112 179.554 39.544C178.834 39.976 177.906 40.192 176.77 40.192ZM187.798 40V22.192H191.542V40H187.798Z" fill="url(#paint1_linear_13_681)"/>
<defs>
<linearGradient id="paint0_linear_13_681" x1="49.0032" y1="10.9988" x2="194.003" y2="10.9988" gradientUnits="userSpaceOnUse">
<stop stop-color="#A0E0DE"/>
<stop offset="1" stop-color="#DAFDB8"/>
</linearGradient>
<linearGradient id="paint1_linear_13_681" x1="49.0032" y1="30.4988" x2="194.003" y2="30.4988" gradientUnits="userSpaceOnUse">
<stop stop-color="#A0E0DE"/>
<stop offset="1" stop-color="#DAFDB8"/>
</linearGradient>
</defs>
</svg>
